<?xml version="1.0" encoding="utf-8"?>
<!-- Generator: Adobe Illustrator 27.3.1, SVG Export Plug-In . SVG Version: 6.00 Build 0)  -->
<svg version="1.1" id="Layer_1" xmlns="http://www.w3.org/2000/svg" xmlns:xlink="http://www.w3.org/1999/xlink" x="0px" y="0px"
	 viewBox="0 0 24 24" style="enable-background:new 0 0 24 24;" xml:space="preserve">
<style type="text/css">
	.st0{fill:#757575;}
	.st1{fill:#42A5F5;}
</style>
<path class="st0" d="M13,9h5.5L13,3.5V9 M6,2h8l6,6v12c0,1.1-0.9,2-2,2H6c-1.1,0-2-0.9-2-2V4C4,2.9,4.9,2,6,2 M15,18v-2H6v2H15
	 M18,14v-2H6v2H18z"/>
<g>
	<path class="st1" d="M15.6,12.1c-3,0-5.5,2.5-5.5,5.5s2.5,5.5,5.5,5.5s5.5-2.5,5.5-5.5l0,0C21.1,14.6,18.6,12.1,15.6,12.1
		 M17.5,17.3c-0.9,0-1.6-0.7-1.6-1.6c0-0.9,0.7-1.6,1.6-1.6c0.9,0,1.6,0.7,1.6,1.6C19.2,16.6,18.4,17.3,17.5,17.3 M21.4,10.1
		c-0.9,0-1.6,0.7-1.6,1.6s0.7,1.6,1.6,1.6s1.6-0.7,1.6-1.6S22.3,10.1,21.4,10.1"/>
</g>
</svg>
